<svg xmlns="http://www.w3.org/2000/svg" width="379.69" height="147.837" viewBox="0 0 379.69 147.837">
    <defs>
        <style>
            .cls-1{fill:#fff}.cls-2,.cls-3{fill:#ed2651}.cls-3{font-size:9px;font-family:Roboto-Medium,Roboto;font-weight:500}
        </style>
    </defs>
    <g id="그룹_90" data-name="그룹 90" transform="translate(-493.155 -347.452)">
        <path id="패스_22" data-name="패스 22" class="cls-1" d="M38.365 14.509a139.16 139.16 0 0 0-9.353-13.214.808.808 0 0 0-1.248 0 139.159 139.159 0 0 0-9.352 13.214C12.167 24.556 9 32.786 9 38.969c0 11.513 8.335 20.2 19.388 20.2 11.416 0 19.388-8.3 19.388-20.2 0-6.183-3.167-14.413-9.412-24.46" transform="translate(491.426 347.26)"/>
        <g id="그룹_72" data-name="그룹 72">
            <path id="패스_23" data-name="패스 23" class="cls-2" d="M9.112 45.5A20.552 20.552 0 0 0 9 47.52c0 11.513 8.335 20.2 19.388 20.2 11.415 0 19.388-8.3 19.388-20.2 0-.649-.044-1.326-.113-2.02z" transform="translate(491.426 338.709)"/>
            <path id="패스_24" data-name="패스 24" class="cls-2" d="M28.2 1.616s18.581 22.62 18.581 37.161c0 12.118-8.318 19.388-18.581 19.388S9.616 50.087 9.616 38.777C9.616 24.235 28.2 1.616 28.2 1.616M28.2 0a1.614 1.614 0 0 0-1.248.59 137.183 137.183 0 0 0-9.415 13.3C11.208 24.067 8 32.44 8 38.777c0 11.974 8.683 21 20.2 21 11.892 0 20.2-8.638 20.2-21 0-6.337-3.208-14.709-9.533-24.887A137.183 137.183 0 0 0 29.444.59 1.614 1.614 0 0 0 28.2 0" transform="translate(491.618 347.452)"/>
        </g>
        <path id="패스_25" data-name="패스 25" class="cls-1" d="M12.214 24.928a11.714 11.714 0 1 1 11.714-11.714 11.727 11.727 0 0 1-11.714 11.714" transform="translate(493.06 347.163)"/>
        <path id="패스_26" data-name="패스 26" class="cls-2" d="M12.118 1.808a11.31 11.31 0 1 1-11.31 11.31 11.31 11.31 0 0 1 11.31-11.31m0-.808a12.118 12.118 0 1 0 12.117 12.118A12.131 12.131 0 0 0 12.118 1" transform="translate(493.155 347.26)"/>
        <text id="JAN" class="cls-3" transform="translate(497 363)"><tspan x="0" y="0">JAN</tspan></text>
        <path id="패스_20" data-name="패스 20" class="cls-1" d="M100.365 14.509a139.159 139.159 0 0 0-9.353-13.214.808.808 0 0 0-1.248 0 139.159 139.159 0 0 0-9.352 13.214C74.167 24.556 71 32.786 71 38.969c0 11.513 8.335 20.2 19.388 20.2 11.416 0 19.388-8.3 19.388-20.2 0-6.183-3.167-14.413-9.412-24.46" transform="translate(495.67 347.26)"/>
        <path id="패스_21" data-name="패스 21" class="cls-2" d="M72.062 40A25.787 25.787 0 0 0 71 46.867c0 11.513 8.335 20.2 19.388 20.2 11.416 0 19.388-8.3 19.388-20.2A25.758 25.758 0 0 0 108.714 40z" transform="translate(495.67 339.766)"/>
        <path id="패스_27" data-name="패스 27" class="cls-2" d="M90.2 1.616s18.581 22.62 18.581 37.161c0 12.118-8.318 19.388-18.581 19.388s-18.584-8.078-18.584-19.388C71.616 24.235 90.2 1.616 90.2 1.616M90.2 0a1.614 1.614 0 0 0-1.248.59 137.183 137.183 0 0 0-9.415 13.3C73.208 24.067 70 32.44 70 38.777c0 11.974 8.683 21 20.2 21 11.892 0 20.2-8.638 20.2-21 0-6.337-3.208-14.709-9.533-24.887A137.183 137.183 0 0 0 91.444.59 1.614 1.614 0 0 0 90.2 0" transform="translate(495.862 347.452)"/>
        <path id="패스_28" data-name="패스 28" class="cls-1" d="M74.214 24.928a11.714 11.714 0 1 1 11.714-11.714 11.727 11.727 0 0 1-11.714 11.714" transform="translate(497.303 347.163)"/>
        <path id="패스_29" data-name="패스 29" class="cls-2" d="M74.118 1.808a11.31 11.31 0 1 1-11.31 11.31 11.31 11.31 0 0 1 11.31-11.31m0-.808a12.118 12.118 0 1 0 12.117 12.118A12.131 12.131 0 0 0 74.118 1" transform="translate(497.399 347.26)"/>
        <text id="FEB" class="cls-3" transform="translate(564 363)"><tspan x="0" y="0">FEB</tspan></text>
        <path id="패스_18" data-name="패스 18" class="cls-1" d="M162.365 14.509a139.158 139.158 0 0 0-9.352-13.214.808.808 0 0 0-1.248 0 139.161 139.161 0 0 0-9.352 13.214C136.167 24.556 133 32.786 133 38.969c0 11.513 8.335 20.2 19.388 20.2 11.416 0 19.388-8.3 19.388-20.2 0-6.183-3.167-14.413-9.412-24.46" transform="translate(500.722 347.26)"/>
        <path id="패스_19" data-name="패스 19" class="cls-2" d="M133.649 42a23.818 23.818 0 0 0-.649 5.251c0 11.513 8.335 20.2 19.388 20.2 11.416 0 19.388-8.3 19.388-20.2a23.822 23.822 0 0 0-.65-5.251z" transform="translate(500.722 339.381)"/>
        <path id="패스_30" data-name="패스 30" class="cls-2" d="M152.2 1.616s18.581 22.62 18.581 37.161c0 12.118-8.318 19.388-18.581 19.388s-18.581-8.078-18.581-19.388c0-14.541 18.581-37.161 18.581-37.161m0-1.616a1.614 1.614 0 0 0-1.248.59 137.184 137.184 0 0 0-9.415 13.3C135.208 24.067 132 32.44 132 38.777c0 11.974 8.683 21 20.2 21 11.892 0 20.2-8.638 20.2-21 0-6.337-3.208-14.709-9.533-24.887a137.185 137.185 0 0 0-9.423-13.3A1.614 1.614 0 0 0 152.2 0" transform="translate(500.914 347.452)"/>
        <path id="패스_31" data-name="패스 31" class="cls-1" d="M136.214 24.928a11.714 11.714 0 1 1 11.714-11.714 11.727 11.727 0 0 1-11.714 11.714" transform="translate(502.354 347.163)"/>
        <path id="패스_32" data-name="패스 32" class="cls-2" d="M136.118 1.808a11.31 11.31 0 1 1-11.31 11.31 11.31 11.31 0 0 1 11.31-11.31m0-.808a12.118 12.118 0 1 0 12.118 12.118A12.131 12.131 0 0 0 136.118 1" transform="translate(502.451 347.26)"/>
        <text id="MAR" class="cls-3" transform="translate(629.068 363)"><tspan x="0" y="0">MAR</tspan></text>
        <path id="패스_16" data-name="패스 16" class="cls-1" d="M224.365 14.509a139.156 139.156 0 0 0-9.352-13.214.808.808 0 0 0-1.248 0 139.166 139.166 0 0 0-9.352 13.214C198.167 24.556 195 32.786 195 38.969c0 11.513 8.335 20.2 19.388 20.2 11.416 0 19.388-8.3 19.388-20.2 0-6.183-3.167-14.413-9.412-24.46" transform="translate(504.965 347.26)"/>
        <path id="패스_17" data-name="패스 17" class="cls-2" d="M196.818 36.5A28.755 28.755 0 0 0 195 45.79c0 11.513 8.335 20.2 19.388 20.2 11.416 0 19.388-8.3 19.388-20.2a28.776 28.776 0 0 0-1.818-9.29z" transform="translate(504.965 340.438)"/>
        <path id="패스_33" data-name="패스 33" class="cls-2" d="M214.2 1.616s18.581 22.62 18.581 37.161c0 12.118-8.318 19.388-18.581 19.388s-18.581-8.078-18.581-19.388c0-14.541 18.581-37.161 18.581-37.161m0-1.616a1.614 1.614 0 0 0-1.248.59 137.179 137.179 0 0 0-9.415 13.3C197.208 24.067 194 32.44 194 38.777c0 11.974 8.683 21 20.2 21 11.892 0 20.2-8.638 20.2-21 0-6.337-3.208-14.709-9.533-24.887a137.187 137.187 0 0 0-9.423-13.3A1.614 1.614 0 0 0 214.2 0" transform="translate(505.157 347.452)"/>
        <path id="패스_34" data-name="패스 34" class="cls-1" d="M198.214 24.928a11.714 11.714 0 1 1 11.714-11.714 11.727 11.727 0 0 1-11.714 11.714" transform="translate(506.598 347.163)"/>
        <path id="패스_35" data-name="패스 35" class="cls-2" d="M198.118 1.808a11.31 11.31 0 1 1-11.31 11.31 11.31 11.31 0 0 1 11.31-11.31m0-.808a12.118 12.118 0 1 0 12.118 12.118A12.131 12.131 0 0 0 198.118 1" transform="translate(506.694 347.26)"/>
        <text id="APR" class="cls-3" transform="translate(696.313 363)"><tspan x="0" y="0">APR</tspan></text>
        <path id="패스_14" data-name="패스 14" class="cls-1" d="M286.365 14.509a139.164 139.164 0 0 0-9.352-13.214.808.808 0 0 0-1.248 0 139.164 139.164 0 0 0-9.352 13.214C260.167 24.556 257 32.786 257 38.969c0 11.513 8.335 20.2 19.388 20.2 11.416 0 19.388-8.3 19.388-20.2 0-6.183-3.167-14.413-9.412-24.46" transform="translate(510.017 347.26)"/>
        <path id="패스_15" data-name="패스 15" class="cls-2" d="M266.029 18.5C260.043 28.26 257 36.278 257 42.332c0 11.513 8.335 20.2 19.388 20.2 11.416 0 19.388-8.3 19.388-20.2 0-6.053-3.042-14.072-9.029-23.832z" transform="translate(510.017 343.897)"/>
        <path id="패스_36" data-name="패스 36" class="cls-2" d="M276.2 1.616s18.581 22.62 18.581 37.161c0 12.118-8.318 19.388-18.581 19.388s-18.581-8.078-18.581-19.388c0-14.541 18.581-37.161 18.581-37.161m0-1.616a1.614 1.614 0 0 0-1.248.59 137.184 137.184 0 0 0-9.415 13.3C259.208 24.067 256 32.44 256 38.777c0 11.974 8.683 21 20.2 21 11.892 0 20.2-8.638 20.2-21 0-6.337-3.208-14.709-9.533-24.887a137.193 137.193 0 0 0-9.423-13.3A1.614 1.614 0 0 0 276.2 0" transform="translate(510.208 347.452)"/>
        <path id="패스_37" data-name="패스 37" class="cls-1" d="M260.214 24.928a11.714 11.714 0 1 1 11.714-11.714 11.727 11.727 0 0 1-11.714 11.714" transform="translate(511.65 347.163)"/>
        <path id="패스_38" data-name="패스 38" class="cls-2" d="M260.118 1.808a11.31 11.31 0 1 1-11.31 11.31 11.31 11.31 0 0 1 11.31-11.31m0-.808a12.118 12.118 0 1 0 12.118 12.118A12.131 12.131 0 0 0 260.118 1" transform="translate(511.746 347.26)"/>
        <text id="MAY" class="cls-3" transform="translate(762.864 363)"><tspan x="0" y="0">M</tspan><tspan y="0" style="letter-spacing:-.073em">A</tspan><tspan y="0">Y</tspan></text>
        <path id="패스_39" data-name="패스 39" class="cls-2" d="M348.365 14.509a139.155 139.155 0 0 0-9.352-13.214.808.808 0 0 0-1.248 0 139.165 139.165 0 0 0-9.353 13.214C322.167 24.556 319 32.786 319 38.969c0 11.513 8.335 20.2 19.388 20.2 11.416 0 19.388-8.3 19.388-20.2 0-6.183-3.167-14.413-9.412-24.46" transform="translate(514.26 347.26)"/>
        <path id="패스_40" data-name="패스 40" class="cls-2" d="M338.2 1.616s18.581 22.62 18.581 37.161c0 12.118-8.318 19.388-18.581 19.388s-18.581-8.078-18.581-19.388c0-14.541 18.581-37.161 18.581-37.161m0-1.616a1.614 1.614 0 0 0-1.248.59 137.19 137.19 0 0 0-9.415 13.3C321.208 24.067 318 32.44 318 38.777c0 11.974 8.683 21 20.2 21 11.892 0 20.2-8.638 20.2-21 0-6.337-3.208-14.709-9.533-24.887a137.19 137.19 0 0 0-9.423-13.3A1.614 1.614 0 0 0 338.2 0" transform="translate(514.452 347.452)"/>
        <path id="패스_41" data-name="패스 41" class="cls-1" d="M322.214 24.928a11.714 11.714 0 1 1 11.714-11.714 11.727 11.727 0 0 1-11.714 11.714" transform="translate(515.894 347.163)"/>
        <path id="패스_42" data-name="패스 42" class="cls-2" d="M322.118 1.808a11.31 11.31 0 1 1-11.31 11.31 11.31 11.31 0 0 1 11.31-11.31m0-.808a12.118 12.118 0 1 0 12.118 12.118A12.131 12.131 0 0 0 322.118 1" transform="translate(515.99 347.26)"/>
        <text id="JUN" class="cls-3" transform="translate(829.73 363)"><tspan x="0" y="0">JUN</tspan></text>
        <path id="패스_12" data-name="패스 12" class="cls-1" d="M410.365 14.509a139.148 139.148 0 0 0-9.352-13.214.808.808 0 0 0-1.248 0 139.174 139.174 0 0 0-9.352 13.214C384.167 24.556 381 32.786 381 38.969c0 11.513 8.335 20.2 19.388 20.2 11.416 0 19.388-8.3 19.388-20.2 0-6.183-3.167-14.413-9.412-24.46" transform="translate(119.427 435.315)"/>
        <path id="패스_13" data-name="패스 13" class="cls-2" d="M405.948 9.5h-11.119a136.293 136.293 0 0 0-4.417 6.642C384.167 26.189 381 34.419 381 40.6c0 11.513 8.335 20.2 19.388 20.2 11.416 0 19.388-8.3 19.388-20.2 0-6.183-3.167-14.413-9.412-24.46a135.087 135.087 0 0 0-4.417-6.642" transform="translate(119.427 433.682)"/>
        <path id="패스_43" data-name="패스 43" class="cls-2" d="M400.2 1.616s18.581 22.62 18.581 37.161c0 12.118-8.318 19.388-18.581 19.388s-18.581-8.078-18.581-19.388c0-14.541 18.581-37.161 18.581-37.161m0-1.616a1.614 1.614 0 0 0-1.248.59 137.184 137.184 0 0 0-9.415 13.3C383.208 24.067 380 32.44 380 38.777c0 11.974 8.683 21 20.2 21 11.892 0 20.2-8.638 20.2-21 0-6.337-3.208-14.709-9.533-24.887a137.181 137.181 0 0 0-9.423-13.3A1.614 1.614 0 0 0 400.2 0" transform="translate(119.618 435.507)"/>
        <path id="패스_44" data-name="패스 44" class="cls-1" d="M384.214 24.928a11.714 11.714 0 1 1 11.714-11.714 11.727 11.727 0 0 1-11.714 11.714" transform="translate(121.06 435.219)"/>
        <path id="패스_45" data-name="패스 45" class="cls-2" d="M384.118 1.808a11.31 11.31 0 1 1-11.31 11.31 11.31 11.31 0 0 1 11.31-11.31m0-.808a12.118 12.118 0 1 0 12.118 12.118A12.132 12.132 0 0 0 384.118 1" transform="translate(121.156 435.315)"/>
        <text id="JUL" class="cls-3" transform="translate(497 451)"><tspan x="0" y="0">JUL</tspan></text>
        <path id="패스_10" data-name="패스 10" class="cls-1" d="M472.365 14.509a139.174 139.174 0 0 0-9.352-13.214.808.808 0 0 0-1.248 0 139.155 139.155 0 0 0-9.352 13.214C446.167 24.556 443 32.786 443 38.969c0 11.513 8.335 20.2 19.388 20.2 11.416 0 19.388-8.3 19.388-20.2 0-6.183-3.167-14.413-9.412-24.46" transform="translate(123.67 435.315)"/>
        <path id="패스_11" data-name="패스 11" class="cls-2" d="M469.623 12.5h-14.471a129.278 129.278 0 0 0-2.741 4.219C446.166 26.766 443 35 443 41.179c0 11.513 8.335 20.2 19.388 20.2 11.415 0 19.388-8.3 19.388-20.2 0-6.183-3.167-14.413-9.412-24.46-.924-1.486-1.849-2.9-2.741-4.219" transform="translate(123.67 433.105)"/>
        <path id="패스_46" data-name="패스 46" class="cls-2" d="M462.2 1.616s18.581 22.62 18.581 37.161c0 12.118-8.318 19.388-18.581 19.388s-18.58-8.078-18.58-19.388c0-14.541 18.58-37.161 18.58-37.161m0-1.616a1.614 1.614 0 0 0-1.248.59 137.19 137.19 0 0 0-9.415 13.3C445.208 24.067 442 32.44 442 38.777c0 11.974 8.683 21 20.2 21 11.892 0 20.2-8.638 20.2-21 0-6.337-3.208-14.709-9.533-24.887a137.184 137.184 0 0 0-9.423-13.3A1.614 1.614 0 0 0 462.2 0" transform="translate(123.862 435.507)"/>
        <path id="패스_47" data-name="패스 47" class="cls-1" d="M446.214 24.928a11.714 11.714 0 1 1 11.714-11.714 11.727 11.727 0 0 1-11.714 11.714" transform="translate(125.303 435.219)"/>
        <path id="패스_48" data-name="패스 48" class="cls-2" d="M446.118 1.808a11.31 11.31 0 1 1-11.31 11.31 11.31 11.31 0 0 1 11.31-11.31m0-.808a12.118 12.118 0 1 0 12.118 12.118A12.131 12.131 0 0 0 446.118 1" transform="translate(125.399 435.315)"/>
        <text id="AUG" class="cls-3" transform="translate(563 451)"><tspan x="0" y="0" style="letter-spacing:-.008em">A</tspan><tspan y="0">UG</tspan></text>
        <path id="패스_8" data-name="패스 8" class="cls-1" d="M534.365 14.509a139.148 139.148 0 0 0-9.352-13.214.808.808 0 0 0-1.248 0 139.167 139.167 0 0 0-9.352 13.214C508.167 24.556 505 32.786 505 38.969c0 11.513 8.335 20.2 19.388 20.2 11.416 0 19.388-8.3 19.388-20.2 0-6.183-3.167-14.413-9.412-24.46" transform="translate(128.722 435.315)"/>
        <path id="패스_9" data-name="패스 9" class="cls-2" d="M514.029 18.5C508.043 28.26 505 36.278 505 42.332c0 11.513 8.335 20.2 19.388 20.2 11.416 0 19.388-8.3 19.388-20.2 0-6.053-3.042-14.072-9.029-23.832z" transform="translate(128.722 431.953)"/>
        <path id="패스_49" data-name="패스 49" class="cls-2" d="M524.2 1.616s18.581 22.62 18.581 37.161c0 12.118-8.318 19.388-18.581 19.388s-18.58-8.078-18.58-19.388c0-14.541 18.58-37.161 18.58-37.161m0-1.616a1.614 1.614 0 0 0-1.248.59 137.16 137.16 0 0 0-9.415 13.3C507.208 24.067 504 32.44 504 38.777c0 11.974 8.683 21 20.2 21 11.892 0 20.2-8.638 20.2-21 0-6.337-3.208-14.709-9.534-24.887a137.183 137.183 0 0 0-9.422-13.3A1.614 1.614 0 0 0 524.2 0" transform="translate(128.913 435.507)"/>
        <path id="패스_50" data-name="패스 50" class="cls-1" d="M508.214 24.928a11.714 11.714 0 1 1 11.714-11.714 11.727 11.727 0 0 1-11.714 11.714" transform="translate(130.355 435.219)"/>
        <path id="패스_51" data-name="패스 51" class="cls-2" d="M508.118 1.808a11.31 11.31 0 1 1-11.31 11.31 11.31 11.31 0 0 1 11.31-11.31m0-.808a12.118 12.118 0 1 0 12.118 12.118A12.132 12.132 0 0 0 508.118 1" transform="translate(130.451 435.315)"/>
        <text id="SEP" class="cls-3" transform="translate(630.684 451)"><tspan x="0" y="0">SEP</tspan></text>
        <path id="패스_6" data-name="패스 6" class="cls-1" d="M596.364 14.509a139.155 139.155 0 0 0-9.352-13.214.808.808 0 0 0-1.248 0 139.167 139.167 0 0 0-9.352 13.214C570.167 24.556 567 32.786 567 38.969c0 11.513 8.335 20.2 19.388 20.2 11.416 0 19.388-8.3 19.388-20.2 0-6.183-3.167-14.413-9.412-24.46" transform="translate(132.966 435.315)"/>
        <path id="패스_7" data-name="패스 7" class="cls-2" d="M568.818 36.5A28.754 28.754 0 0 0 567 45.79c0 11.513 8.335 20.2 19.388 20.2 11.416 0 19.388-8.3 19.388-20.2a28.779 28.779 0 0 0-1.818-9.29z" transform="translate(132.966 428.494)"/>
        <path id="패스_52" data-name="패스 52" class="cls-2" d="M586.2 1.616s18.581 22.62 18.581 37.161c0 12.118-8.318 19.388-18.581 19.388s-18.581-8.078-18.581-19.388c0-14.541 18.581-37.161 18.581-37.161m0-1.616a1.614 1.614 0 0 0-1.248.59 137.2 137.2 0 0 0-9.415 13.3C569.208 24.067 566 32.44 566 38.777c0 11.974 8.683 21 20.2 21 11.892 0 20.2-8.638 20.2-21 0-6.337-3.208-14.709-9.533-24.887a137.19 137.19 0 0 0-9.423-13.3A1.614 1.614 0 0 0 586.2 0" transform="translate(133.157 435.507)"/>
        <path id="패스_53" data-name="패스 53" class="cls-1" d="M570.214 24.928a11.714 11.714 0 1 1 11.714-11.714 11.727 11.727 0 0 1-11.714 11.714" transform="translate(134.599 435.219)"/>
        <path id="패스_54" data-name="패스 54" class="cls-2" d="M570.118 1.808a11.31 11.31 0 1 1-11.31 11.31 11.31 11.31 0 0 1 11.31-11.31m0-.808a12.118 12.118 0 1 0 12.118 12.118A12.131 12.131 0 0 0 570.118 1" transform="translate(134.694 435.315)"/>
        <text id="OCT" class="cls-3" transform="translate(696.313 451)"><tspan x="0" y="0">O</tspan><tspan y="0" style="letter-spacing:-.013em">C</tspan><tspan y="0">T</tspan></text>
        <path id="패스_4" data-name="패스 4" class="cls-1" d="M658.365 14.509a139.193 139.193 0 0 0-9.352-13.214.808.808 0 0 0-1.248 0 139.142 139.142 0 0 0-9.352 13.214C632.167 24.556 629 32.786 629 38.969c0 11.513 8.335 20.2 19.388 20.2 11.416 0 19.388-8.3 19.388-20.2 0-6.183-3.167-14.413-9.412-24.46" transform="translate(138.017 435.315)"/>
        <path id="패스_5" data-name="패스 5" class="cls-2" d="M634.359 26.5C630.8 33.386 629 39.209 629 43.869c0 11.513 8.335 20.2 19.388 20.2 11.416 0 19.388-8.3 19.388-20.2 0-4.66-1.8-10.483-5.359-17.369z" transform="translate(138.017 430.415)"/>
        <path id="패스_55" data-name="패스 55" class="cls-2" d="M648.2 1.616s18.581 22.62 18.581 37.161c0 12.118-8.318 19.388-18.581 19.388s-18.581-8.078-18.581-19.388c0-14.541 18.581-37.161 18.581-37.161m0-1.616a1.614 1.614 0 0 0-1.248.59 137.165 137.165 0 0 0-9.415 13.3C631.208 24.067 628 32.44 628 38.777c0 11.974 8.683 21 20.2 21 11.891 0 20.2-8.638 20.2-21 0-6.337-3.208-14.709-9.534-24.887a137.19 137.19 0 0 0-9.422-13.3A1.614 1.614 0 0 0 648.2 0" transform="translate(138.209 435.507)"/>
        <path id="패스_56" data-name="패스 56" class="cls-1" d="M632.214 24.928a11.714 11.714 0 1 1 11.714-11.714 11.727 11.727 0 0 1-11.714 11.714" transform="translate(139.65 435.219)"/>
        <path id="패스_57" data-name="패스 57" class="cls-2" d="M632.118 1.808a11.31 11.31 0 1 1-11.31 11.31 11.31 11.31 0 0 1 11.31-11.31m0-.808a12.118 12.118 0 1 0 12.118 12.118A12.131 12.131 0 0 0 632.118 1" transform="translate(139.746 435.315)"/>
        <text id="NOV" class="cls-3" transform="translate(762.864 451)"><tspan x="0" y="0">N</tspan><tspan y="0" style="letter-spacing:-.01em">O</tspan><tspan y="0">V</tspan></text>
        <path id="패스_2" data-name="패스 2" class="cls-1" d="M720.364 14.509a139.122 139.122 0 0 0-9.352-13.214.808.808 0 0 0-1.248 0 139.122 139.122 0 0 0-9.352 13.214C694.167 24.556 691 32.786 691 38.969c0 11.513 8.335 20.2 19.388 20.2 11.416 0 19.388-8.3 19.388-20.2 0-6.183-3.167-14.413-9.412-24.46" transform="translate(142.26 435.315)"/>
        <path id="패스_3" data-name="패스 3" class="cls-2" d="M699.054 20.5C693.712 29.532 691 37 691 42.716c0 11.513 8.335 20.2 19.388 20.2 11.416 0 19.388-8.3 19.388-20.2 0-5.716-2.712-13.184-8.054-22.216z" transform="translate(142.26 431.568)"/>
        <path id="패스_58" data-name="패스 58" class="cls-2" d="M710.2 1.616s18.581 22.62 18.581 37.161c0 12.118-8.318 19.388-18.581 19.388s-18.581-8.078-18.581-19.388c0-14.541 18.581-37.161 18.581-37.161m0-1.616a1.614 1.614 0 0 0-1.248.59 137.189 137.189 0 0 0-9.415 13.3C693.208 24.067 690 32.44 690 38.777c0 11.974 8.683 21 20.2 21 11.892 0 20.2-8.638 20.2-21 0-6.337-3.208-14.709-9.533-24.887a137.184 137.184 0 0 0-9.423-13.3A1.614 1.614 0 0 0 710.2 0" transform="translate(142.453 435.507)"/>
        <path id="패스_59" data-name="패스 59" class="cls-1" d="M694.214 24.928a11.714 11.714 0 1 1 11.714-11.714 11.727 11.727 0 0 1-11.714 11.714" transform="translate(143.894 435.219)"/>
        <path id="패스_60" data-name="패스 60" class="cls-2" d="M694.118 1.808a11.31 11.31 0 1 1-11.31 11.31 11.31 11.31 0 0 1 11.31-11.31m0-.808a12.118 12.118 0 1 0 12.118 12.118A12.131 12.131 0 0 0 694.118 1" transform="translate(143.989 435.315)"/>
        <text id="DEC" class="cls-3" transform="translate(829.485 451)"><tspan x="0" y="0">DEC</tspan></text>
    </g>
</svg>
